<svg id="Layer_1" data-name="Layer 1" xmlns="http://www.w3.org/2000/svg" viewBox="0 0 426.6 480.51">
  <title>callout</title>
  <g>
    <path d="M9.48,2.21H6.92V0h7.69V2.21H12.05V8.58H9.48Z" transform="translate(271.14 379.18)"/>
    <path d="M15.26,0h2.59V3.23h2.48V0h2.59V8.58H20.33V5.42H17.85V8.58H15.26Z" transform="translate(271.14 379.18)"/>
    <path d="M24.18,0H29.9V2.06H26.77V3.24h2.5v2h-2.5V6.51h3.3V8.58H24.18Z" transform="translate(271.14 379.18)"/>
    <path d="M33.2,0h2.59V8.58H33.2Z" transform="translate(271.14 379.18)"/>
    <path d="M37,0h2.47l2.11,3.51a7.88,7.88,0,0,1,.61,1.31h.05s-.09-.77-.09-1.31V0h2.5V8.58H42.17L40.05,4.89a9.86,9.86,0,0,1-.61-1.29h0a12.08,12.08,0,0,1,.1,1.29V8.58H37Z" transform="translate(271.14 379.18)"/>
    <path d="M49.82,2.21H47.27V0H55V2.21H52.4V8.58H49.82Z" transform="translate(271.14 379.18)"/>
    <path d="M55.61,0H58.2V3.23h2.48V0h2.59V8.58H60.68V5.42H58.2V8.58H55.61Z" transform="translate(271.14 379.18)"/>
    <path d="M64.52,0h5.72V2.06H67.11V3.24h2.51v2H67.11V6.51h3.3V8.58H64.52Z" transform="translate(271.14 379.18)"/>
    <path d="M77.73-.14a4.32,4.32,0,0,1,4.61,4.37,4.61,4.61,0,0,1-9.22,0A4.32,4.32,0,0,1,77.73-.14Zm0,6.57a2,2,0,0,0,1.94-2.2,1.94,1.94,0,1,0-3.88,0A2,2,0,0,0,77.73,6.43Z" transform="translate(271.14 379.18)"/>
    <path d="M83.07,0h2.59V5.21a1.2,1.2,0,1,0,2.4,0V0h2.59V5.36c0,2-1.52,3.36-3.81,3.36s-3.77-1.39-3.77-3.36Z" transform="translate(271.14 379.18)"/>
    <path d="M93.76,2.21H91.21V0H98.9V2.21H96.34V8.58H93.76Z" transform="translate(271.14 379.18)"/>
  </g>
  <g>
    <path d="M9.48-150H6.92v-2.21h7.69V-150H12.05v6.36H9.48Z" transform="translate(271.14 379.18)"/>
    <path d="M15.26-152.21h2.59V-149h2.48v-3.22h2.59v8.57H20.33v-3.15H17.85v3.15H15.26Z" transform="translate(271.14 379.18)"/>
    <path d="M24.18-152.21H29.9v2.06H26.77V-149h2.5v2h-2.5v1.23h3.3v2.06H24.18Z" transform="translate(271.14 379.18)"/>
    <path d="M33.2-152.21h2.59v8.57H33.2Z" transform="translate(271.14 379.18)"/>
    <path d="M37-152.21h2.47l2.11,3.51a7.88,7.88,0,0,1,.61,1.31h.05s-.09-.77-.09-1.31v-3.51h2.5v8.57H42.17l-2.12-3.68a9.86,9.86,0,0,1-.61-1.29h0a12.08,12.08,0,0,1,.1,1.29v3.68H37Z" transform="translate(271.14 379.18)"/>
    <path d="M49.82-150H47.27v-2.21H55V-150H52.4v6.36H49.82Z" transform="translate(271.14 379.18)"/>
    <path d="M55.61-152.21H58.2V-149h2.48v-3.22h2.59v8.57H60.68v-3.15H58.2v3.15H55.61Z" transform="translate(271.14 379.18)"/>
    <path d="M64.52-152.21h5.72v2.06H67.11V-149h2.51v2H67.11v1.23h3.3v2.06H64.52Z" transform="translate(271.14 379.18)"/>
    <path d="M77.73-152.36A4.33,4.33,0,0,1,82.34-148a4.38,4.38,0,0,1-4.61,4.49A4.38,4.38,0,0,1,73.12-148,4.33,4.33,0,0,1,77.73-152.36Zm0,6.58a2,2,0,0,0,1.94-2.2,1.92,1.92,0,0,0-1.94-2.08A1.92,1.92,0,0,0,75.79-148,2,2,0,0,0,77.73-145.78Z" transform="translate(271.14 379.18)"/>
    <path d="M83.07-152.21h2.59v5.2a1.1,1.1,0,0,0,1.2,1.23,1.1,1.1,0,0,0,1.2-1.23v-5.2h2.59v5.36c0,2-1.52,3.36-3.81,3.36s-3.77-1.39-3.77-3.36Z" transform="translate(271.14 379.18)"/>
    <path d="M93.76-150H91.21v-2.21H98.9V-150H96.34v6.36H93.76Z" transform="translate(271.14 379.18)"/>
  </g>
  <g>
    <path d="M1,49.47h2.9a4,4,0,0,1,4.35,4.25A4,4,0,0,1,3.93,58H1Zm2.82,7.18a2.63,2.63,0,0,0,2.83-2.93A2.64,2.64,0,0,0,3.85,50.8H2.58v5.85Z" transform="translate(271.14 379.18)"/>
    <path d="M11,49.47h5.1V50.8H12.59V53h2.87v1.33H12.59v2.29h3.74V58H11Z" transform="translate(271.14 379.18)"/>
    <path d="M19.09,49.47h3c1.54,0,2.63.79,2.63,2.2a2,2,0,0,1-1,1.82v0a2,2,0,0,1,1.38,2c0,1.71-1.37,2.48-2.94,2.48H19.09Zm3,3.48a1,1,0,0,0,1.06-1.09,1,1,0,0,0-1.08-1.06H20.63V53Zm.16,3.7a1.23,1.23,0,1,0,0-2.45H20.63v2.45Z" transform="translate(271.14 379.18)"/>
    <path d="M27.82,49.47h1.54v5.46a1.7,1.7,0,0,0,1.89,1.78,1.7,1.7,0,0,0,1.89-1.79V49.47h1.55v5.46a3.15,3.15,0,0,1-3.43,3.2,3.15,3.15,0,0,1-3.44-3.2Z" transform="translate(271.14 379.18)"/>
    <path d="M39.64,50.8h-2.8V49.47H44V50.8H41.19V58H39.64Z" transform="translate(271.14 379.18)"/>
    <path d="M45.32,56.46h1.52V58H45.32Z" transform="translate(271.14 379.18)"/>
    <path d="M54.08,55.8h-3L50.37,58H48.78l3-8.52H53.4l3,8.52H54.8ZM52.58,51s-.19.83-.36,1.31l-.75,2.28H53.7l-.76-2.28c-.15-.48-.33-1.31-.33-1.31Z" transform="translate(271.14 379.18)"/>
    <path d="M58.63,49.47h1.55v7.18h3.68V58H58.63Z" transform="translate(271.14 379.18)"/>
    <path d="M66.25,49.47h3c1.54,0,2.63.79,2.63,2.2a2,2,0,0,1-1,1.82v0a2,2,0,0,1,1.38,2c0,1.71-1.37,2.48-2.94,2.48H66.25Zm3,3.48a1,1,0,0,0,1.06-1.09,1,1,0,0,0-1.08-1.06H67.79V53Zm.16,3.7a1.23,1.23,0,1,0,0-2.45H67.79v2.45Z" transform="translate(271.14 379.18)"/>
    <path d="M75,49.47h1.55v5.46a1.89,1.89,0,0,0,3.78,0V49.47h1.55v5.46a3.45,3.45,0,0,1-6.88,0Z" transform="translate(271.14 379.18)"/>
    <path d="M85.47,49.47h1.65l1.67,4.21c.19.5.43,1.25.43,1.25h0s.23-.75.42-1.25l1.67-4.21H93L93.67,58H92.13l-.36-4.77c0-.56,0-1.32,0-1.32h0s-.25.83-.46,1.32l-1.38,3.3H88.55l-1.37-3.3c-.2-.49-.47-1.33-.47-1.33h0s0,.77,0,1.33L86.32,58H84.77Z" transform="translate(271.14 379.18)"/>
    <path d="M96.41,56.46h1.53V58H96.41Z" transform="translate(271.14 379.18)"/>
    <path d="M100.85,49.47h1.54v7.18h3.68V58h-5.22Z" transform="translate(271.14 379.18)"/>
    <path d="M113,55.8h-3L109.26,58h-1.59l3-8.52h1.62l3,8.52h-1.59ZM111.47,51s-.19.83-.36,1.31l-.76,2.28h2.23l-.75-2.28c-.16-.48-.34-1.31-.34-1.31Z" transform="translate(271.14 379.18)"/>
    <path d="M117.32,49.47h1.54v5.46a1.89,1.89,0,0,0,3.78,0V49.47h1.55v5.46a3.44,3.44,0,0,1-6.87,0Z" transform="translate(271.14 379.18)"/>
    <path d="M127.38,49.47h1.54l3.23,4.92a13.79,13.79,0,0,1,.71,1.32h0s-.08-.82-.08-1.32V49.47h1.53V58H132.8l-3.23-4.91a13.79,13.79,0,0,1-.71-1.32h0s.08.82.08,1.32V58h-1.54Z" transform="translate(271.14 379.18)"/>
    <path d="M141.43,49.33a4.39,4.39,0,0,1,3.14,1.16l-.74,1.15a3.75,3.75,0,0,0-2.33-.9,2.77,2.77,0,0,0-2.85,2.93,2.87,2.87,0,0,0,2.86,3A3.69,3.69,0,0,0,144,55.63l.81,1.12a4.56,4.56,0,0,1-3.34,1.38,4.4,4.4,0,0,1,0-8.8Z" transform="translate(271.14 379.18)"/>
    <path d="M147.38,49.47h1.54v3.61h3.9V49.47h1.55V58h-1.55V54.41h-3.9V58h-1.54Z" transform="translate(271.14 379.18)"/>
    <path d="M1.22,70.2a3.44,3.44,0,0,0,2.13.9c.64,0,1.23-.33,1.23-1,0-1.52-4-1.26-4-3.87a2.62,2.62,0,0,1,2.86-2.47A3.61,3.61,0,0,1,6,64.64L5.29,65.9a3.11,3.11,0,0,0-1.88-.75c-.72,0-1.29.42-1.29,1,0,1.51,4,1.14,4,3.86a2.55,2.55,0,0,1-2.81,2.5A4.15,4.15,0,0,1,.38,71.37Z" transform="translate(271.14 379.18)"/>
    <path d="M21.73,70.2h-3L18,72.39H16.43l3-8.52H21l3,8.52H22.45Zm-1.5-4.85s-.19.83-.36,1.31l-.76,2.28h2.23l-.75-2.28c-.16-.48-.34-1.31-.34-1.31Z" transform="translate(271.14 379.18)"/>
    <path d="M36.22,65.2H33.43V63.87h7.13V65.2H37.77v7.19H36.22Z" transform="translate(271.14 379.18)"/>
    <path d="M50.57,70.86H52.1v1.53H50.57Z" transform="translate(271.14 379.18)"/>
    <path d="M63.29,71.63c0-3.07,4-3.56,4-5.25A1.18,1.18,0,0,0,66,65.19a2,2,0,0,0-1.54,1l-1.15-.77a3.15,3.15,0,0,1,2.82-1.7,2.54,2.54,0,0,1,2.77,2.51c0,2.74-3.81,3.21-3.85,4.81h4v1.34H63.36A7.4,7.4,0,0,1,63.29,71.63Z" transform="translate(271.14 379.18)"/>
    <path d="M79.69,69.24l3.67-5.37H85.2v5h1.1v1.28H85.2v2.2H83.67v-2.2h-4Zm4-.33V66.27a8.23,8.23,0,0,1,.06-.89h0a4.6,4.6,0,0,1-.42.78l-2,2.72v0Z" transform="translate(271.14 379.18)"/>
    <path d="M97.21,70.86h1.52v1.53H97.21Z" transform="translate(271.14 379.18)"/>
    <path d="M110.31,63.87h1.55l3.23,4.92a12.82,12.82,0,0,1,.7,1.32h0s-.09-.82-.09-1.32V63.87h1.54v8.52h-1.54l-3.22-4.91a11.7,11.7,0,0,1-.71-1.32h0s.08.82.08,1.32v4.91h-1.55Z" transform="translate(271.14 379.18)"/>
    <path d="M133.06,63.73a4.29,4.29,0,0,1,4.4,4.34,4.4,4.4,0,1,1-8.8,0A4.29,4.29,0,0,1,133.06,63.73Zm0,7.38a2.88,2.88,0,0,0,2.81-3,2.81,2.81,0,1,0-5.62,0A2.88,2.88,0,0,0,133.06,71.11Z" transform="translate(271.14 379.18)"/>
    <path d="M147.71,63.87h1.67l1.87,5.55c.17.49.31,1.25.32,1.25h0s.15-.76.32-1.25l1.89-5.55h1.65l-3.11,8.52h-1.53Z" transform="translate(271.14 379.18)"/>
    <path d="M1.22,84.6a3.44,3.44,0,0,0,2.13.9c.64,0,1.23-.33,1.23-1,0-1.52-4-1.26-4-3.87a2.62,2.62,0,0,1,2.86-2.47A3.61,3.61,0,0,1,6,79L5.29,80.3a3.11,3.11,0,0,0-1.88-.75c-.72,0-1.29.42-1.29,1,0,1.51,4,1.14,4,3.86a2.55,2.55,0,0,1-2.81,2.5A4.15,4.15,0,0,1,.38,85.77Z" transform="translate(271.14 379.18)"/>
    <path d="M18.16,84.16a6.09,6.09,0,0,1,.15.9h0a6.63,6.63,0,0,1,.14-.9l1.4-5.89h1.6l-2.2,8.52H17.5l-1.31-5A9.08,9.08,0,0,1,16,80.63h0a9.08,9.08,0,0,1-.22,1.12l-1.3,5H12.64L10.5,78.27h1.6l1.34,5.89a7.85,7.85,0,0,1,.15.9h0a5.47,5.47,0,0,1,.16-.9l1.53-5.89h1.35Z" transform="translate(271.14 379.18)"/>
    <path d="M30.45,84.6h-3l-.72,2.19H25.15l3-8.52h1.62l3,8.52H31.17ZM29,79.75s-.19.83-.36,1.31l-.76,2.28h2.24l-.76-2.28c-.16-.48-.34-1.31-.34-1.31Z" transform="translate(271.14 379.18)"/>
    <path d="M37.88,78.27h1.66l1.67,4.21c.19.5.43,1.25.43,1.25h0s.23-.75.42-1.25l1.67-4.21H45.4l.69,8.52H44.55L44.19,82c0-.56,0-1.32,0-1.32h0s-.26.83-.46,1.32l-1.38,3.3H41L39.6,82c-.2-.49-.47-1.33-.47-1.33h0s0,.77,0,1.33l-.36,4.77H37.19Z" transform="translate(271.14 379.18)"/>
    <path d="M51.58,78.27h3.29A2.61,2.61,0,0,1,57.58,81a2.64,2.64,0,0,1-2.71,2.81H53.13v2.94H51.58Zm3,4.23A1.34,1.34,0,0,0,56,81,1.32,1.32,0,0,0,54.6,79.6H53.13v2.9Z" transform="translate(271.14 379.18)"/>
    <path d="M62.54,78.27h1.55v7.18h3.68v1.34H62.54Z" transform="translate(271.14 379.18)"/>
    <path d="M77.11,84.6h-3l-.72,2.19H71.81l3-8.52h1.62l3,8.52H77.83Zm-1.5-4.85s-.19.83-.36,1.31l-.75,2.28h2.23L76,81.06c-.16-.48-.34-1.31-.34-1.31Z" transform="translate(271.14 379.18)"/>
    <path d="M84.11,78.27h1.55l3.23,4.92a12.82,12.82,0,0,1,.7,1.32h0s-.09-.82-.09-1.32V78.27h1.54v8.52H89.53l-3.22-4.91a11.7,11.7,0,0,1-.71-1.32h0s.08.82.08,1.32v4.91H84.11Z" transform="translate(271.14 379.18)"/>
    <path d="M96.82,78.27h2.91a4.26,4.26,0,1,1,0,8.52H96.82Zm2.82,7.18a2.93,2.93,0,0,0,0-5.85H98.37v5.85Z" transform="translate(271.14 379.18)"/>
    <path d="M109.48,84.6a3.4,3.4,0,0,0,2.12.9c.65,0,1.23-.33,1.23-1,0-1.52-4-1.26-4-3.87a2.61,2.61,0,0,1,2.85-2.47,3.61,3.61,0,0,1,2.54.91l-.67,1.26a3.07,3.07,0,0,0-1.88-.75c-.72,0-1.28.42-1.28,1,0,1.51,4,1.14,4,3.86a2.54,2.54,0,0,1-2.8,2.5,4.12,4.12,0,0,1-2.94-1.16Z" transform="translate(271.14 379.18)"/>
    <path d="M119.23,85.26h1.52v1.53h-1.52Z" transform="translate(271.14 379.18)"/>
    <path d="M126.1,78.27h3.05c1.54,0,2.63.79,2.63,2.19a2,2,0,0,1-1,1.83v0a2,2,0,0,1,1.38,2c0,1.71-1.37,2.48-2.94,2.48H126.1Zm3.05,3.48a1,1,0,0,0,1.06-1.09,1,1,0,0,0-1.08-1.06h-1.48v2.15Zm.16,3.7a1.23,1.23,0,1,0,0-2.45h-1.66v2.45Z" transform="translate(271.14 379.18)"/>
    <path d="M141.63,84.6h-3l-.72,2.19h-1.6l3-8.52H141l3,8.52h-1.6Zm-1.49-4.85s-.2.83-.36,1.31L139,83.34h2.23l-.75-2.28c-.16-.48-.34-1.31-.34-1.31Z" transform="translate(271.14 379.18)"/>
    <path d="M148.64,78.27h2.74a3.93,3.93,0,0,1,1.72.24,2.41,2.41,0,0,1,1.39,2.33,2.44,2.44,0,0,1-1.44,2.32v0a2.13,2.13,0,0,1,.29.42l1.75,3.18h-1.73l-1.69-3.18h-1.49v3.18h-1.54Zm2.94,4a1.24,1.24,0,0,0,1.34-1.34c0-.82-.35-1.32-1.56-1.32h-1.18v2.66Z" transform="translate(271.14 379.18)"/>
    <path d="M2.79,94H0V92.67H7.14V94H4.34v7.19H2.79Z" transform="translate(271.14 379.18)"/>
    <path d="M13.18,92.67h1.55v3.61h3.9V92.67h1.54v8.52H18.63V97.61h-3.9v3.58H13.18Z" transform="translate(271.14 379.18)"/>
    <path d="M31.06,92.53a4.3,4.3,0,0,1,4.41,4.34,4.41,4.41,0,1,1-8.81,0A4.3,4.3,0,0,1,31.06,92.53Zm0,7.38a2.88,2.88,0,0,0,2.81-3,2.81,2.81,0,1,0-5.61,0A2.88,2.88,0,0,0,31.06,99.91Z" transform="translate(271.14 379.18)"/>
    <path d="M42,92.67H44.7a4,4,0,0,1,1.72.24,2.41,2.41,0,0,1,1.39,2.33,2.44,2.44,0,0,1-1.44,2.32v0a2.13,2.13,0,0,1,.29.42l1.75,3.18H46.68L45,98H43.5v3.18H42Zm2.93,4a1.24,1.24,0,0,0,1.35-1.34c0-.82-.35-1.32-1.56-1.32H43.5v2.66Z" transform="translate(271.14 379.18)"/>
    <path d="M54.77,92.67h1.54l3.23,4.92a13.79,13.79,0,0,1,.71,1.32h0s-.08-.82-.08-1.32V92.67h1.53v8.52H60.19L57,96.28A13.79,13.79,0,0,1,56.25,95h0s.08.82.08,1.32v4.91H54.77Z" transform="translate(271.14 379.18)"/>
    <path d="M68.8,92.67h3c1.54,0,2.63.79,2.63,2.19a2,2,0,0,1-1,1.83v0a2,2,0,0,1,1.38,2c0,1.71-1.37,2.48-2.94,2.48H68.8Zm3,3.48a1,1,0,0,0,1.06-1.09A1,1,0,0,0,71.82,94H70.35v2.15Zm.16,3.7a1.23,1.23,0,1,0,0-2.45H70.35v2.45Z" transform="translate(271.14 379.18)"/>
    <path d="M81.3,92.67h1.54v5.46a1.89,1.89,0,0,0,3.78,0V92.67h1.55v5.46a3.44,3.44,0,0,1-6.87,0Z" transform="translate(271.14 379.18)"/>
    <path d="M95.13,92.67h2.74a4,4,0,0,1,1.72.24A2.41,2.41,0,0,1,101,95.24a2.44,2.44,0,0,1-1.44,2.32v0a2.13,2.13,0,0,1,.29.42l1.75,3.18H99.85L98.16,98H96.67v3.18H95.13Zm2.93,4a1.24,1.24,0,0,0,1.35-1.34c0-.82-.35-1.32-1.56-1.32H96.67v2.66Z" transform="translate(271.14 379.18)"/>
    <path d="M109.57,97.62l-2.84-5h1.76l1.33,2.51c.27.52.5,1.15.51,1.14h0s.24-.62.51-1.14l1.32-2.51h1.75l-2.83,5v3.57h-1.54Z" transform="translate(271.14 379.18)"/>
    <path d="M119,99.66h1.52v1.53H119Z" transform="translate(271.14 379.18)"/>
    <path d="M125.59,92.67h1.66l1.87,5.55c.17.49.32,1.25.33,1.25h0s.16-.76.33-1.25l1.88-5.55h1.65l-3.1,8.52h-1.54Z" transform="translate(271.14 379.18)"/>
    <path d="M139.32,92.67h1.55v8.52h-1.55Z" transform="translate(271.14 379.18)"/>
    <path d="M151.73,92.53a4.39,4.39,0,0,1,3.14,1.16l-.74,1.15a3.75,3.75,0,0,0-2.33-.9A2.77,2.77,0,0,0,149,96.87a2.87,2.87,0,0,0,2.86,3,3.65,3.65,0,0,0,2.47-1.08l.82,1.12a4.6,4.6,0,0,1-3.35,1.38,4.4,4.4,0,0,1,0-8.8Z" transform="translate(271.14 379.18)"/>
  </g>
  <text transform="translate(0 10.2)" style="font-size: 12px;font-family: MuseoSans-700, Museo Sans;letter-spacing: 0.0953369140625em">DEBU<tspan x="36.84" y="0" style="letter-spacing: 0.042317708333333336em">T</tspan><tspan x="44.59" y="0">.ALBUM</tspan><tspan x="95.68" y="0" style="letter-spacing: 0.08732096354166667em">.</tspan><tspan x="99.81" y="0" style="letter-spacing: 0.1182861328125em">L</tspan><tspan x="107.7" y="0" style="letter-spacing: 0.08837890625em">A</tspan><tspan x="116.41" y="0" style="letter-spacing: 0.09529622395833333em">UNC</tspan><tspan x="146.35" y="0" style="letter-spacing: -0.020060221354166668em">H</tspan><tspan style="letter-spacing: 0.8178304036458334em"><tspan x="0" y="14.4">S</tspan><tspan x="16.46" y="14.4" style="letter-spacing: 0.7768147786458334em">A</tspan><tspan x="33.43" y="14.4" style="letter-spacing: 0.7648111979166666em">T</tspan><tspan x="49.84" y="14.4">.</tspan><tspan x="62.74" y="14.4" style="letter-spacing: 0.808837890625em">2</tspan><tspan x="79.41" y="14.4" style="letter-spacing: 0.8017985026041666em">4</tspan><tspan x="96.48" y="14.4" style="letter-spacing: 0.8098551432291666em">.</tspan><tspan x="109.28" y="14.4">N</tspan><tspan x="128.21" y="14.4" style="letter-spacing: 0.8138020833333334em">O</tspan><tspan x="147.77" y="14.4" style="letter-spacing: -0.019978841145833332em">V</tspan></tspan><tspan style="letter-spacing: 0.2993570963541667em"><tspan x="0" y="28.8">S</tspan><tspan x="10.24" y="28.8" style="letter-spacing: 0.2793375651041667em">W</tspan><tspan x="25.18" y="28.8">AMP</tspan><tspan x="61.51" y="28.8" style="letter-spacing: 0.3223470052083333em">L</tspan><tspan x="71.84" y="28.8" style="letter-spacing: 0.29931640625em">ANDS</tspan><tspan x="118.49" y="28.8" style="letter-spacing: 0.2913411458333333em">.</tspan><tspan x="125.07" y="28.8" style="letter-spacing: 0.29931640625em">BA</tspan><tspan x="147.61" y="28.8" style="letter-spacing: -0.019978841145833332em">R</tspan></tspan><tspan style="letter-spacing: 0.4094645182291667em"><tspan x="0" y="43.2">THORNBU</tspan><tspan x="94.09" y="43.2" style="letter-spacing: 0.3974202473958333em">R</tspan><tspan x="106.76" y="43.2" style="letter-spacing: 0.3524983723958333em">Y</tspan><tspan x="118.25" y="43.2" style="letter-spacing: 0.3594563802083333em">.</tspan><tspan x="125.65" y="43.2" style="letter-spacing: 0.409423828125em">VI</tspan><tspan x="146.91" y="43.2" style="letter-spacing: -0.019978841145833332em">C</tspan></tspan></text>
</svg>
