<svg id="Layer_1" data-name="Layer 1" xmlns="http://www.w3.org/2000/svg" viewBox="0 0 459.36 153.23">
  <title>callout</title>
  <g>
    <path d="M3,.28h8.55c7.73,0,12.78,4.59,12.78,12.5S19.32,25.36,11.59,25.36H3Zm8.3,21.16c5.09,0,8.34-3,8.34-8.66S16.36,4.2,11.34,4.2H7.59V21.44Z"/>
    <path d="M32.53.28h15V4.2H37.08v6.57h8.45v3.92H37.08v6.75h11v3.92H32.53Z"/>
    <path d="M56.22.28h9c4.52,0,7.73,2.33,7.73,6.46a5.92,5.92,0,0,1-3,5.37v.07A5.88,5.88,0,0,1,74,18.08c0,5-4,7.28-8.66,7.28H56.22Zm9,10.24A3,3,0,0,0,68.3,7.31,2.9,2.9,0,0,0,65.12,4.2H60.77v6.32Zm.46,10.92a3.4,3.4,0,0,0,3.64-3.64,3.41,3.41,0,0,0-3.64-3.6H60.77v7.24Z"/>
    <path d="M81.92.28h4.56V16.35c0,3.36,2.19,5.26,5.54,5.26s5.59-1.9,5.59-5.29V.28h4.55V16.35c0,5.62-4.06,9.43-10.1,9.43S81.92,22,81.92,16.35Z"/>
    <path d="M116.74,4.2h-8.23V.28h21V4.2H121.3V25.36h-4.56Z"/>
    <path d="M133.47,20.87H138v4.49h-4.49Z"/>
    <path d="M159.28,18.93h-8.8l-2.12,6.43h-4.69L152.5.28h4.76l8.83,25.08H161.4ZM154.86,4.62s-.56,2.48-1.06,3.89l-2.22,6.71h6.57l-2.23-6.71c-.46-1.41-1-3.89-1-3.89Z"/>
    <path d="M172.69.28h4.56V21.44h10.84v3.92h-15.4Z"/>
    <path d="M195.11.28h9c4.52,0,7.74,2.33,7.74,6.46a5.92,5.92,0,0,1-3,5.37v.07a5.88,5.88,0,0,1,4.06,5.9c0,5-4,7.28-8.65,7.28h-9.08Zm9,10.24a3,3,0,0,0,3.11-3.21A2.9,2.9,0,0,0,204,4.2h-4.35v6.32Zm.46,10.92a3.4,3.4,0,0,0,3.64-3.64,3.41,3.41,0,0,0-3.64-3.6h-4.88v7.24Z"/>
    <path d="M220.81.28h4.56V16.35c0,3.36,2.19,5.26,5.55,5.26s5.58-1.9,5.58-5.29V.28h4.55V16.35c0,5.62-4.06,9.43-10.1,9.43S220.81,22,220.81,16.35Z"/>
    <path d="M251.71.28h4.88l4.91,12.4c.56,1.48,1.27,3.67,1.27,3.67h.07s.67-2.19,1.24-3.67L269,.28h4.87l2,25.08h-4.52l-1.06-14c-.1-1.66,0-3.89,0-3.89h-.07s-.75,2.44-1.35,3.89l-4.06,9.71h-4l-4-9.71c-.6-1.45-1.37-3.93-1.37-3.93h-.08s.08,2.27,0,3.93l-1.06,14h-4.56Z"/>
    <path d="M284,20.87h4.48v4.49H284Z"/>
    <path d="M297,.28h4.55V21.44h10.85v3.92H297Z"/>
    <path d="M332.71,18.93h-8.8l-2.12,6.43h-4.7L325.92.28h4.77l8.83,25.08h-4.69ZM328.29,4.62s-.56,2.48-1.06,3.89L325,15.22h6.57l-2.23-6.71c-.46-1.41-1-3.89-1-3.89Z"/>
    <path d="M345.52.28h4.56V16.35c0,3.36,2.19,5.26,5.54,5.26s5.58-1.9,5.58-5.29V.28h4.56V16.35c0,5.62-4.06,9.43-10.1,9.43S345.52,22,345.52,16.35Z"/>
    <path d="M375.15.28h4.55l9.51,14.48a38.51,38.51,0,0,1,2.08,3.89h.07s-.25-2.4-.25-3.89V.28h4.52V25.36h-4.52l-9.5-14.45A38.81,38.81,0,0,1,379.53,7h-.07s.24,2.4.24,3.88V25.36h-4.55Z"/>
    <path d="M416.54-.14a13,13,0,0,1,9.25,3.42L423.6,6.67A11,11,0,0,0,416.75,4c-5.3,0-8.41,4-8.41,8.62s3.22,9,8.45,9a10.81,10.81,0,0,0,7.27-3.17l2.4,3.28a13.49,13.49,0,0,1-9.85,4.06c-7.67,0-13-5.68-13-13.07A12.6,12.6,0,0,1,416.54-.14Z"/>
    <path d="M434.05.28h4.56V10.91h11.48V.28h4.56V25.36h-4.56V14.83H438.61V25.36h-4.56Z"/>
    <path d="M3.6,61.34A10.05,10.05,0,0,0,9.86,64c1.9,0,3.63-1,3.63-3,0-4.48-11.83-3.71-11.83-11.41,0-4.17,3.6-7.27,8.41-7.27A10.69,10.69,0,0,1,17.56,45l-2,3.71A9.15,9.15,0,0,0,10,46.47c-2.12,0-3.78,1.24-3.78,3,0,4.45,11.8,3.36,11.8,11.38,0,4-3,7.34-8.27,7.34a12.14,12.14,0,0,1-8.65-3.42Z"/>
    <path d="M64,61.34h-8.8l-2.11,6.43h-4.7l8.83-25.08H62l8.83,25.08h-4.7ZM59.58,47s-.57,2.48-1.06,3.89l-2.23,6.71h6.57l-2.22-6.71c-.47-1.41-1-3.89-1-3.89Z"/>
    <path d="M106.68,46.61H98.45V42.69h21v3.92h-8.23V67.77h-4.56Z"/>
    <path d="M149,63.28h4.48v4.49H149Z"/>
    <path d="M186.4,65.54c0-9,11.73-10.49,11.73-15.47a3.5,3.5,0,0,0-3.81-3.5c-2.94,0-4.53,3-4.53,3l-3.39-2.26a9.29,9.29,0,0,1,8.3-5c4.42,0,8.16,2.68,8.16,7.41,0,8.06-11.23,9.43-11.33,14.17h11.72v3.92H186.62A16.79,16.79,0,0,1,186.4,65.54Z"/>
    <path d="M234.71,58.52l10.81-15.83h5.4V57.53h3.25V61.3h-3.25v6.47h-4.48V61.3H234.71Zm11.73-1V49.75a25,25,0,0,1,.17-2.61h-.07a14.62,14.62,0,0,1-1.23,2.3l-5.8,8v.07Z"/>
    <path d="M286.3,63.28h4.49v4.49H286.3Z"/>
    <path d="M324.89,42.69h4.56L339,57.17A38.51,38.51,0,0,1,341,61.06h.07s-.24-2.4-.24-3.89V42.69h4.52V67.77h-4.52l-9.51-14.45a38.81,38.81,0,0,1-2.08-3.88h-.07s.25,2.4.25,3.88V67.77h-4.56Z"/>
    <path d="M391.89,42.27a12.66,12.66,0,0,1,13,12.78,13,13,0,1,1-25.93,0A12.67,12.67,0,0,1,391.89,42.27Zm0,21.75c4.59,0,8.26-3.81,8.26-9a8.27,8.27,0,1,0-16.53,0C383.62,60.21,387.29,64,391.89,64Z"/>
    <path d="M435,42.69H440L445.46,59c.49,1.45.92,3.68,1,3.68h.08s.45-2.23.95-3.68L453,42.69h4.88l-9.15,25.08h-4.52Z"/>
    <path d="M3.6,103.75a10.05,10.05,0,0,0,6.26,2.65c1.9,0,3.63-1,3.63-3,0-4.48-11.83-3.71-11.83-11.41,0-4.17,3.6-7.27,8.41-7.27a10.69,10.69,0,0,1,7.49,2.68l-2,3.71A9.15,9.15,0,0,0,10,88.88c-2.12,0-3.78,1.24-3.78,3,0,4.45,11.8,3.36,11.8,11.38,0,4-3,7.34-8.27,7.34a12.14,12.14,0,0,1-8.65-3.42Z"/>
    <path d="M53.47,102.44a18.72,18.72,0,0,1,.46,2.65H54a22.72,22.72,0,0,1,.43-2.65L58.56,85.1h4.7l-6.47,25.08H51.53L47.68,95.34A31.4,31.4,0,0,1,47,92.06H47a29.92,29.92,0,0,1-.63,3.28l-3.85,14.84H37.22L30.94,85.1h4.69l4,17.34a21.4,21.4,0,0,1,.42,2.65h.07a21.89,21.89,0,0,1,.47-2.65L45.07,85.1h4Z"/>
    <path d="M89.68,103.75h-8.8l-2.12,6.43H74.07L82.9,85.1h4.77l8.83,25.08H91.8Zm-4.42-14.3s-.56,2.47-1.06,3.88L82,100h6.57l-2.23-6.71c-.46-1.41-1-3.88-1-3.88Z"/>
    <path d="M111.57,85.1h4.88l4.91,12.4c.56,1.48,1.27,3.67,1.27,3.67h.07s.67-2.19,1.24-3.67l4.91-12.4h4.87l2,25.08h-4.53l-1.06-14c-.1-1.66,0-3.89,0-3.89h-.07s-.74,2.44-1.34,3.89l-4.07,9.71h-4l-4-9.71c-.6-1.45-1.38-3.92-1.38-3.92h-.07s.07,2.26,0,3.92l-1.06,14h-4.55Z"/>
    <path d="M151.91,85.1h9.68c4.7,0,8,3.29,8,8.16s-3.28,8.27-8,8.27h-5.12v8.65h-4.56Zm8.83,12.47A4,4,0,0,0,165,93.26,3.89,3.89,0,0,0,160.81,89h-4.34v8.55Z"/>
    <path d="M184.19,85.1h4.56v21.16h10.84v3.92h-15.4Z"/>
    <path d="M227.1,103.75h-8.79l-2.12,6.43h-4.7l8.83-25.08h4.77l8.83,25.08h-4.7Zm-4.41-14.3s-.57,2.47-1.06,3.88L219.4,100H226l-2.22-6.71c-.46-1.41-1-3.88-1-3.88Z"/>
    <path d="M247.73,85.1h4.55l9.5,14.48a37.29,37.29,0,0,1,2.09,3.89h.07s-.25-2.4-.25-3.89V85.1h4.52v25.08h-4.52l-9.5-14.45a39.8,39.8,0,0,1-2.09-3.88H252s.25,2.4.25,3.88v14.45h-4.55Z"/>
    <path d="M285.17,85.1h8.54c7.74,0,12.79,4.59,12.79,12.5s-5.05,12.58-12.79,12.58h-8.54Zm8.3,21.16c5.08,0,8.33-3,8.33-8.66S298.48,89,293.47,89h-3.75v17.24Z"/>
    <path d="M322.43,103.75a10,10,0,0,0,6.25,2.65c1.91,0,3.64-1,3.64-3,0-4.48-11.83-3.71-11.83-11.41,0-4.17,3.6-7.27,8.4-7.27a10.66,10.66,0,0,1,7.49,2.68l-2,3.71a9.14,9.14,0,0,0-5.54-2.19c-2.12,0-3.78,1.24-3.78,3,0,4.45,11.8,3.36,11.8,11.38,0,4-3,7.34-8.27,7.34a12.14,12.14,0,0,1-8.65-3.42Z"/>
    <path d="M351.14,105.69h4.48v4.49h-4.48Z"/>
    <path d="M371.4,85.1h9c4.53,0,7.74,2.33,7.74,6.46a5.92,5.92,0,0,1-3,5.37V97a5.87,5.87,0,0,1,4.06,5.9c0,5-4,7.28-8.65,7.28H371.4Zm9,10.24a3,3,0,0,0,3.11-3.21A2.9,2.9,0,0,0,380.3,89H376v6.32Zm.46,10.92a3.62,3.62,0,1,0,0-7.24H376v7.24Z"/>
    <path d="M417.14,103.75h-8.8l-2.12,6.43h-4.69l8.83-25.08h4.77L424,110.18h-4.7Zm-4.42-14.3s-.56,2.47-1.06,3.88L409.44,100H416l-2.23-6.71c-.46-1.41-1-3.88-1-3.88Z"/>
    <path d="M437.76,85.1h8.09c2.72,0,4,.21,5,.71a7.08,7.08,0,0,1,4.1,6.85,7.22,7.22,0,0,1-4.24,6.85v.07a6.64,6.64,0,0,1,.85,1.24l5.16,9.36h-5.09l-5-9.36h-4.38v9.36h-4.56Zm8.66,11.76a3.64,3.64,0,0,0,3.95-4c0-2.4-1-3.89-4.59-3.89h-3.46v7.84Z"/>
    <path d="M8.23,131.43H0v-3.92H21v3.92H12.79v21.16H8.23Z"/>
    <path d="M38.82,127.51h4.56v10.63H54.86V127.51h4.55v25.08H54.86V142.06H43.38v10.53H38.82Z"/>
    <path d="M91.49,127.09a12.66,12.66,0,0,1,13,12.78,13,13,0,1,1-25.93,0A12.67,12.67,0,0,1,91.49,127.09Zm0,21.76c4.59,0,8.26-3.82,8.26-9a8.27,8.27,0,1,0-16.53,0C83.22,145,86.9,148.85,91.49,148.85Z"/>
    <path d="M123.57,127.51h8.08c2.73,0,4,.21,5.06.71a7.09,7.09,0,0,1,4.09,6.85,7.23,7.23,0,0,1-4.23,6.85V142a6.39,6.39,0,0,1,.84,1.24l5.16,9.36h-5.09l-5-9.36h-4.38v9.36h-4.55Zm8.65,11.76a3.64,3.64,0,0,0,4-4c0-2.4-1-3.89-4.6-3.89h-3.46v7.84Z"/>
    <path d="M161.29,127.51h4.56l9.5,14.48a37.29,37.29,0,0,1,2.09,3.89h.07s-.25-2.4-.25-3.89V127.51h4.52v25.08h-4.52l-9.5-14.45a37.56,37.56,0,0,1-2.09-3.88h-.07s.25,2.4.25,3.88v14.45h-4.56Z"/>
    <path d="M202.62,127.51h9c4.52,0,7.73,2.33,7.73,6.47a5.91,5.91,0,0,1-3,5.36v.07a5.88,5.88,0,0,1,4.07,5.9c0,5-4,7.28-8.66,7.28h-9.08Zm9,10.24a3,3,0,0,0,3.1-3.21,2.9,2.9,0,0,0-3.18-3.11h-4.34v6.32Zm.45,10.92a3.62,3.62,0,1,0,0-7.24h-4.87v7.24Z"/>
    <path d="M239.43,127.51H244v16.07c0,3.36,2.19,5.27,5.54,5.27s5.58-1.91,5.58-5.3v-16h4.56v16.07c0,5.62-4.06,9.43-10.1,9.43s-10.14-3.81-10.14-9.43Z"/>
    <path d="M280.16,127.51h8.09c2.72,0,4,.21,5.05.71a7.08,7.08,0,0,1,4.1,6.85,7.22,7.22,0,0,1-4.24,6.85V142a6.64,6.64,0,0,1,.85,1.24l5.15,9.36h-5.08l-5-9.36h-4.38v9.36h-4.56Zm8.65,11.76a3.64,3.64,0,0,0,4-4c0-2.4-1-3.89-4.59-3.89h-3.46v7.84Z"/>
    <path d="M322.69,142.1l-8.34-14.59h5.16l3.92,7.38c.81,1.56,1.48,3.39,1.52,3.36H325s.71-1.8,1.52-3.36l3.89-7.38h5.15l-8.33,14.59v10.49h-4.56Z"/>
    <path d="M350.42,148.1h4.48v4.49h-4.48Z"/>
    <path d="M369.87,127.51h4.91l5.51,16.35c.5,1.45.92,3.68,1,3.68h.07s.46-2.23.95-3.68l5.55-16.35h4.87l-9.15,25.08H379Z"/>
    <path d="M410.32,127.51h4.56v25.08h-4.56Z"/>
    <path d="M446.87,127.09a13,13,0,0,1,9.26,3.42l-2.19,3.39a11,11,0,0,0-6.85-2.65c-5.3,0-8.41,4-8.41,8.62s3.21,9,8.44,9a10.83,10.83,0,0,0,7.28-3.18l2.4,3.28a13.5,13.5,0,0,1-9.86,4.06c-7.66,0-13-5.68-13-13.07A12.6,12.6,0,0,1,446.87,127.09Z"/>
  </g>
</svg>
